<svg xmlns="http://www.w3.org/2000/svg" viewBox="0 0 1177.51 138.73" width="1177.51" height="138.73" role="img" aria-label="MetroTrack San Francisco"><title>MetroTrack San Francisco</title><circle cx="69.36" cy="69.36" r="57.36" fill="#D31245"></circle><path d="M6.32 0L6.32-72.73L25.28-72.73L45.31-23.86L46.16-23.86L66.19-72.73L85.16-72.73L85.16 0L70.24 0L70.24-47.34L69.64-47.34L50.82-0.36L40.66-0.36L21.84-47.51L21.24-47.51L21.24 0L6.32 0Z" fill="#FFFFFF" transform="translate(26.83 103.18) scale(0.93)"></path><path d="M30.89 1.07L30.89 1.07Q22.48 1.07 16.42-2.36Q10.37-5.79 7.10-12.09Q3.84-18.39 3.84-27.02L3.84-27.02Q3.84-35.44 7.10-41.80Q10.37-48.15 16.32-51.70Q22.27-55.26 30.29-55.26L30.29-55.26Q35.69-55.26 40.36-53.53Q45.03-51.81 48.53-48.37Q52.02-44.92 53.98-39.72Q55.93-34.52 55.93-27.56L55.93-27.56L55.93-23.40L18.79-23.40L18.79-23.37Q18.79-19.32 20.29-16.37Q21.80-13.42 24.57-11.83Q27.34-10.23 31.14-10.23L31.14-10.23Q33.66-10.23 35.76-10.94Q37.86-11.65 39.35-13.07Q40.84-14.49 41.62-16.55L41.62-16.55L55.61-15.63Q54.55-10.58 51.26-6.84Q47.98-3.09 42.81-1.01Q37.64 1.07 30.89 1.07ZM18.79-32.78L18.79-32.78L41.69-32.78Q41.69-36.04 40.27-38.57Q38.85-41.09 36.35-42.52Q33.84-43.96 30.54-43.96L30.54-43.96Q27.10-43.96 24.45-42.38Q21.80-40.80 20.31-38.17L20.31-38.17Q18.93-35.72 18.79-32.78Z M82.55-54.55L92.82-54.55L92.82-43.18L82.55-43.18L82.55-16.76Q82.55-14.67 83.19-13.51Q83.83-12.36 84.99-11.90Q86.14-11.43 87.67-11.43L87.67-11.43Q88.73-11.43 89.80-11.63Q90.86-11.83 91.43-11.93L91.43-11.93L93.81-0.67Q92.67-0.32 90.61 0.16Q88.55 0.64 85.61 0.75L85.61 0.75Q80.14 0.96 76.04-0.71Q71.93-2.38 69.66-5.89Q67.39-9.41 67.42-14.77L67.42-14.77L67.42-43.18L59.97-43.18L59.97-54.55L67.42-54.55L67.42-67.61L82.55-67.61L82.55-54.55Z M115.78 0L100.65 0L100.65-54.55L115.32-54.55L115.32-45.03L115.89-45.03Q117.38-50.11 120.89-52.72Q124.41-55.33 128.99-55.33L128.99-55.33Q130.13-55.33 131.44-55.18Q132.75-55.04 133.75-54.79L133.75-54.79L133.75-41.37Q132.68-41.69 130.80-41.94Q128.92-42.19 127.36-42.19L127.36-42.19Q124.02-42.19 121.41-40.75Q118.80-39.31 117.29-36.75Q115.78-34.20 115.78-30.86L115.78-30.86L115.78 0Z M164.17 1.07L164.17 1.07Q155.90 1.07 149.88-2.47Q143.86-6.00 140.59-12.34Q137.32-18.68 137.32-27.06L137.32-27.06Q137.32-35.51 140.59-41.85Q143.86-48.19 149.88-51.72Q155.90-55.26 164.17-55.26L164.17-55.26Q172.44-55.26 178.46-51.72Q184.48-48.19 187.75-41.85Q191.02-35.51 191.02-27.06L191.02-27.06Q191.02-18.68 187.75-12.34Q184.48-6.00 178.46-2.47Q172.44 1.07 164.17 1.07ZM164.24-10.65L164.24-10.65Q168.01-10.65 170.53-12.80Q173.05-14.95 174.34-18.68Q175.64-22.41 175.64-27.17L175.64-27.17Q175.64-31.92 174.34-35.65Q173.05-39.38 170.53-41.55Q168.01-43.71 164.24-43.71L164.24-43.71Q160.44-43.71 157.87-41.55Q155.29-39.38 154.00-35.65Q152.70-31.92 152.70-27.17L152.70-27.17Q152.70-22.41 154.00-18.68Q155.29-14.95 157.87-12.80Q160.44-10.65 164.24-10.65Z" fill="#1A1C20" transform="translate(129.73 105.73)"></path><circle cx="390.13" cy="69.36" r="54.55" fill="#005EB8"></circle><path d="M25.82-60.05L3.55-60.05L3.55-72.73L63.28-72.73L63.28-60.05L41.02-60.05L41.02 0L25.82 0L25.82-60.05Z" fill="#FFFFFF" transform="translate(356.71 105.73)"></path><path d="M21.16 0L6.04 0L6.04-54.55L20.70-54.55L20.70-45.03L21.27-45.03Q22.76-50.11 26.28-52.72Q29.79-55.33 34.38-55.33L34.38-55.33Q35.51-55.33 36.83-55.18Q38.14-55.04 39.13-54.79L39.13-54.79L39.13-41.37Q38.07-41.69 36.19-41.94Q34.30-42.19 32.74-42.19L32.74-42.19Q29.40-42.19 26.79-40.75Q24.18-39.31 22.67-36.75Q21.16-34.20 21.16-30.86L21.16-30.86L21.16 0Z M60.46 1.03L60.46 1.03Q55.24 1.03 51.16-0.80Q47.08-2.63 44.72-6.23Q42.35-9.84 42.35-15.23L42.35-15.23Q42.35-19.78 44.02-22.87Q45.69-25.96 48.57-27.84Q51.44-29.72 55.12-30.68Q58.80-31.64 62.84-32.03L62.84-32.03Q67.60-32.53 70.51-32.97Q73.43-33.42 74.74-34.30Q76.05-35.19 76.05-36.93L76.05-36.93L76.05-37.14Q76.05-40.52 73.94-42.37Q71.83-44.21 67.96-44.21L67.96-44.21Q63.87-44.21 61.46-42.42Q59.04-40.63 58.26-37.93L58.26-37.93L44.27-39.06Q45.34-44.03 48.46-47.67Q51.59-51.31 56.54-53.28Q61.49-55.26 68.03-55.26L68.03-55.26Q72.57-55.26 76.75-54.19Q80.92-53.13 84.17-50.89Q87.42-48.65 89.30-45.15Q91.18-41.65 91.18-36.79L91.18-36.79L91.18 0L76.84 0L76.84-7.56L76.41-7.56Q75.10-5.01 72.89-3.07Q70.69-1.14 67.60-0.05Q64.51 1.03 60.46 1.03ZM64.80-9.41L64.80-9.41Q68.13-9.41 70.69-10.74Q73.25-12.07 74.70-14.35Q76.16-16.62 76.16-19.50L76.16-19.50L76.16-25.28Q75.45-24.82 74.23-24.45Q73-24.08 71.47-23.77Q69.95-23.47 68.42-23.24Q66.89-23.01 65.65-22.83L65.65-22.83Q62.99-22.44 61.00-21.59Q59.01-20.74 57.91-19.30Q56.81-17.86 56.81-15.73L56.81-15.73Q56.81-12.64 59.06-11.03Q61.32-9.41 64.80-9.41Z M125.58 1.07L125.58 1.07Q117.20 1.07 111.18-2.50Q105.16-6.07 101.95-12.43Q98.73-18.79 98.73-27.06L98.73-27.06Q98.73-35.44 101.98-41.78Q105.23-48.12 111.23-51.69Q117.24-55.26 125.51-55.26L125.51-55.26Q132.65-55.26 138.01-52.66Q143.37-50.07 146.50-45.38Q149.62-40.70 149.94-34.38L149.94-34.38L135.67-34.38Q135.06-38.46 132.49-40.96Q129.91-43.47 125.76-43.47L125.76-43.47Q122.24-43.47 119.63-41.57Q117.02-39.67 115.57-36.04Q114.11-32.42 114.11-27.27L114.11-27.27Q114.11-22.05 115.55-18.39Q116.99-14.74 119.62-12.82Q122.24-10.90 125.76-10.90L125.76-10.90Q128.35-10.90 130.43-11.97Q132.51-13.03 133.87-15.07Q135.24-17.12 135.67-19.99L135.67-19.99L149.94-19.99Q149.59-13.74 146.55-9.00Q143.51-4.26 138.19-1.60Q132.86 1.07 125.58 1.07Z M172.80 0L157.67 0L157.67-72.73L172.80-72.73L172.80-33.84L173.62-33.84L191.09-54.55L208.45-54.55L188.21-30.93L209.48 0L191.76 0L176.88-21.98L172.80-17.33L172.80 0Z" fill="#1A1C20" transform="translate(447.67 105.73)"></path><rect x="677.47" y="33" width="2" height="72.73" fill="#1A1C20"></rect><path d="M28.55-27.27L24.29-27.27Q23.97-29.97 21.70-31.46Q19.42-32.95 16.12-32.95L16.12-32.95Q13.71-32.95 11.91-32.17Q10.10-31.39 9.10-30.02Q8.10-28.66 8.10-26.92L8.10-26.92Q8.10-25.46 8.80-24.42Q9.50-23.38 10.60-22.70Q11.70-22.02 12.91-21.58Q14.12-21.15 15.13-20.88L15.13-20.88L18.82-19.89Q20.24-19.51 21.99-18.86Q23.74-18.20 25.35-17.07Q26.95-15.94 28.00-14.19Q29.05-12.43 29.05-9.87L29.05-9.87Q29.05-6.92 27.51-4.55Q25.98-2.17 23.04-0.76Q20.10 0.64 15.91 0.64L15.91 0.64Q12.00 0.64 9.15-0.62Q6.30-1.88 4.68-4.14Q3.05-6.39 2.84-9.38L2.84-9.38L7.39-9.38Q7.56-7.32 8.78-5.97Q10.00-4.63 11.87-3.99Q13.74-3.34 15.91-3.34L15.91-3.34Q18.43-3.34 20.44-4.16Q22.44-4.99 23.62-6.47Q24.79-7.95 24.79-9.94L24.79-9.94Q24.79-11.75 23.77-12.89Q22.76-14.03 21.11-14.74Q19.46-15.45 17.54-15.98L17.54-15.98L13.07-17.26Q8.81-18.48 6.32-20.76Q3.84-23.03 3.84-26.70L3.84-26.70Q3.84-29.76 5.50-32.04Q7.16-34.32 9.97-35.59Q12.78-36.86 16.26-36.86L16.26-36.86Q19.78-36.86 22.51-35.61Q25.25-34.36 26.86-32.19Q28.46-30.02 28.55-27.27L28.55-27.27Z M46.44-10.30L42.78 0L38.17 0L51.52-36.36L56.07-36.36L69.42 0L64.80 0L61.14-10.30L46.44-10.30ZM47.83-14.20L59.76-14.20L53.93-30.61L53.65-30.61L47.83-14.20Z M104.60-36.36L108.93-36.36L108.93 0L104.67 0L84.86-28.55L84.50-28.55L84.50 0L80.10 0L80.10-36.36L84.36-36.36L104.25-7.74L104.60-7.74L104.60-36.36Z M146.21 0L141.80 0L141.80-36.36L163.61-36.36L163.61-32.46L146.21-32.46L146.21-20.17L161.97-20.17L161.97-16.26L146.21-16.26L146.21 0Z M180.54 0L176.14 0L176.14-36.36L188.42-36.36Q192.68-36.36 195.42-34.92Q198.15-33.47 199.47-30.95Q200.78-28.43 200.78-25.21Q200.78-22.00 199.47-19.51Q198.15-17.03 195.44-15.63L195.44-15.63Q194.76-15.27 193.98-15.00L193.98-15.00L202.20 0L197.09 0L189.42-14.22Q188.97-14.20 188.49-14.20L188.49-14.20L180.54-14.20L180.54 0ZM180.54-32.46L180.54-18.18L188.35-18.18Q191.26-18.18 193.05-19.03Q194.83-19.89 195.64-21.46Q196.45-23.03 196.45-25.21Q196.45-27.40 195.63-29.03Q194.82-30.66 193.02-31.56Q191.23-32.46 188.28-32.46L188.28-32.46L180.54-32.46Z M218.25-10.30L214.59 0L209.97 0L223.32-36.36L227.87-36.36L241.22 0L236.61 0L232.95-10.30L218.25-10.30ZM219.63-14.20L231.56-14.20L225.74-30.61L225.45-30.61L219.63-14.20Z M276.41-36.36L280.74-36.36L280.74 0L276.48 0L256.66-28.55L256.31-28.55L256.31 0L251.90 0L251.90-36.36L256.16-36.36L276.05-7.74L276.41-7.74L276.41-36.36Z M323.81-25.00L323.81-25.00L319.40-25.00Q319.01-26.90 318.05-28.34Q317.08-29.78 315.70-30.76Q314.33-31.75 312.66-32.24Q310.99-32.74 309.18-32.74L309.18-32.74Q305.87-32.74 303.20-31.07Q300.53-29.40 298.96-26.15Q297.39-22.90 297.39-18.18L297.39-18.18Q297.39-13.46 298.96-10.21Q300.53-6.96 303.20-5.29Q305.87-3.62 309.18-3.62L309.18-3.62Q310.99-3.62 312.66-4.12Q314.33-4.62 315.70-5.60Q317.08-6.59 318.05-8.03Q319.01-9.48 319.40-11.36L319.40-11.36L323.81-11.36Q323.31-8.58 322.00-6.37Q320.68-4.17 318.73-2.64Q316.78-1.10 314.35-0.30Q311.93 0.50 309.18 0.50L309.18 0.50Q304.52 0.50 300.90-1.78Q297.28-4.05 295.20-8.24Q293.13-12.43 293.13-18.18L293.13-18.18Q293.13-23.93 295.20-28.13Q297.28-32.32 300.90-34.59Q304.52-36.86 309.18-36.86L309.18-36.86Q311.93-36.86 314.35-36.06Q316.78-35.26 318.73-33.73Q320.68-32.19 322.00-30.00Q323.31-27.81 323.81-25.00Z M335.91-36.36L340.31-36.36L340.31 0L335.91 0L335.91-36.36Z M378.27-27.27L374.01-27.27Q373.69-29.97 371.41-31.46Q369.14-32.95 365.84-32.95L365.84-32.95Q363.42-32.95 361.62-32.17Q359.82-31.39 358.82-30.02Q357.81-28.66 357.81-26.92L357.81-26.92Q357.81-25.46 358.51-24.42Q359.22-23.38 360.32-22.70Q361.42-22.02 362.62-21.58Q363.83-21.15 364.84-20.88L364.84-20.88L368.54-19.89Q369.96-19.51 371.71-18.86Q373.46-18.20 375.06-17.07Q376.67-15.94 377.72-14.19Q378.76-12.43 378.76-9.87L378.76-9.87Q378.76-6.92 377.23-4.55Q375.69-2.17 372.75-0.76Q369.82 0.64 365.63 0.64L365.63 0.64Q361.72 0.64 358.87-0.62Q356.02-1.88 354.39-4.14Q352.77-6.39 352.56-9.38L352.56-9.38L357.10-9.38Q357.28-7.32 358.50-5.97Q359.71-4.63 361.59-3.99Q363.46-3.34 365.63-3.34L365.63-3.34Q368.15-3.34 370.15-4.16Q372.16-4.99 373.33-6.47Q374.50-7.95 374.50-9.94L374.50-9.94Q374.50-11.75 373.49-12.89Q372.48-14.03 370.83-14.74Q369.18-15.45 367.26-15.98L367.26-15.98L362.78-17.26Q358.52-18.48 356.04-20.76Q353.55-23.03 353.55-26.70L353.55-26.70Q353.55-29.76 355.21-32.04Q356.87-34.32 359.69-35.59Q362.50-36.86 365.98-36.86L365.98-36.86Q369.50-36.86 372.23-35.61Q374.96-34.36 376.57-32.19Q378.18-30.02 378.27-27.27L378.27-27.27Z M420.27-25.00L420.27-25.00L415.87-25.00Q415.48-26.90 414.51-28.34Q413.54-29.78 412.16-30.76Q410.79-31.75 409.12-32.24Q407.45-32.74 405.64-32.74L405.64-32.74Q402.34-32.74 399.66-31.07Q396.99-29.40 395.42-26.15Q393.85-22.90 393.85-18.18L393.85-18.18Q393.85-13.46 395.42-10.21Q396.99-6.96 399.66-5.29Q402.34-3.62 405.64-3.62L405.64-3.62Q407.45-3.62 409.12-4.12Q410.79-4.62 412.16-5.60Q413.54-6.59 414.51-8.03Q415.48-9.48 415.87-11.36L415.87-11.36L420.27-11.36Q419.77-8.58 418.46-6.37Q417.14-4.17 415.19-2.64Q413.24-1.10 410.81-0.30Q408.39 0.50 405.64 0.50L405.64 0.50Q400.99 0.50 397.37-1.78Q393.74-4.05 391.67-8.24Q389.59-12.43 389.59-18.18L389.59-18.18Q389.59-23.93 391.67-28.13Q393.74-32.32 397.37-34.59Q400.99-36.86 405.64-36.86L405.64-36.86Q408.39-36.86 410.81-36.06Q413.24-35.26 415.19-33.73Q417.14-32.19 418.46-30.00Q419.77-27.81 420.27-25.00Z M463.05-18.18L463.05-18.18Q463.05-12.43 460.98-8.24Q458.90-4.05 455.28-1.78Q451.65 0.50 447.00 0.50L447.00 0.50Q442.35 0.50 438.73-1.78Q435.11-4.05 433.03-8.24Q430.95-12.43 430.95-18.18L430.95-18.18Q430.95-23.93 433.03-28.13Q435.11-32.32 438.73-34.59Q442.35-36.86 447.00-36.86L447.00-36.86Q451.65-36.86 455.28-34.59Q458.90-32.32 460.98-28.13Q463.05-23.93 463.05-18.18ZM458.79-18.18L458.79-18.18Q458.79-22.90 457.22-26.15Q455.65-29.40 452.98-31.07Q450.31-32.74 447.00-32.74L447.00-32.74Q443.70-32.74 441.03-31.07Q438.36-29.40 436.78-26.15Q435.21-22.90 435.21-18.18L435.21-18.18Q435.21-13.46 436.78-10.21Q438.36-6.96 441.03-5.29Q443.70-3.62 447.00-3.62L447.00-3.62Q450.31-3.62 452.98-5.29Q455.65-6.96 457.22-10.21Q458.79-13.46 458.79-18.18Z" fill="#D31245" transform="translate(699.47 87.55)"></path></svg>