<svg xmlns="http://www.w3.org/2000/svg" viewBox="0 0 1102.43 138.73" width="1102.43" height="138.73" role="img" aria-label="MetroTrack Washington"><title>MetroTrack Washington</title><circle cx="69.36" cy="69.36" r="57.36" fill="#BF0D3E"></circle><path d="M6.32 0L6.32-72.73L25.28-72.73L45.31-23.86L46.16-23.86L66.19-72.73L85.16-72.73L85.16 0L70.24 0L70.24-47.34L69.64-47.34L50.82-0.36L40.66-0.36L21.84-47.51L21.24-47.51L21.24 0L6.32 0Z" fill="#FFFFFF" transform="translate(26.83 103.18) scale(0.93)"></path><path d="M30.89 1.07L30.89 1.07Q22.48 1.07 16.42-2.36Q10.37-5.79 7.10-12.09Q3.84-18.39 3.84-27.02L3.84-27.02Q3.84-35.44 7.10-41.80Q10.37-48.15 16.32-51.70Q22.27-55.26 30.29-55.26L30.29-55.26Q35.69-55.26 40.36-53.53Q45.03-51.81 48.53-48.37Q52.02-44.92 53.98-39.72Q55.93-34.52 55.93-27.56L55.93-27.56L55.93-23.40L18.79-23.40L18.79-23.37Q18.79-19.32 20.29-16.37Q21.80-13.42 24.57-11.83Q27.34-10.23 31.14-10.23L31.14-10.23Q33.66-10.23 35.76-10.94Q37.86-11.65 39.35-13.07Q40.84-14.49 41.62-16.55L41.62-16.55L55.61-15.63Q54.55-10.58 51.26-6.84Q47.98-3.09 42.81-1.01Q37.64 1.07 30.89 1.07ZM18.79-32.78L18.79-32.78L41.69-32.78Q41.69-36.04 40.27-38.57Q38.85-41.09 36.35-42.52Q33.84-43.96 30.54-43.96L30.54-43.96Q27.10-43.96 24.45-42.38Q21.80-40.80 20.31-38.17L20.31-38.17Q18.93-35.72 18.79-32.78Z M82.55-54.55L92.82-54.55L92.82-43.18L82.55-43.18L82.55-16.76Q82.55-14.67 83.19-13.51Q83.83-12.36 84.99-11.90Q86.14-11.43 87.67-11.43L87.67-11.43Q88.73-11.43 89.80-11.63Q90.86-11.83 91.43-11.93L91.43-11.93L93.81-0.67Q92.67-0.32 90.61 0.16Q88.55 0.64 85.61 0.75L85.61 0.75Q80.14 0.96 76.04-0.71Q71.93-2.38 69.66-5.89Q67.39-9.41 67.42-14.77L67.42-14.77L67.42-43.18L59.97-43.18L59.97-54.55L67.42-54.55L67.42-67.61L82.55-67.61L82.55-54.55Z M115.78 0L100.65 0L100.65-54.55L115.32-54.55L115.32-45.03L115.89-45.03Q117.38-50.11 120.89-52.72Q124.41-55.33 128.99-55.33L128.99-55.33Q130.13-55.33 131.44-55.18Q132.75-55.04 133.75-54.79L133.75-54.79L133.75-41.37Q132.68-41.69 130.80-41.94Q128.92-42.19 127.36-42.19L127.36-42.19Q124.02-42.19 121.41-40.75Q118.80-39.31 117.29-36.75Q115.78-34.20 115.78-30.86L115.78-30.86L115.78 0Z M164.17 1.07L164.17 1.07Q155.90 1.07 149.88-2.47Q143.86-6.00 140.59-12.34Q137.32-18.68 137.32-27.06L137.32-27.06Q137.32-35.51 140.59-41.85Q143.86-48.19 149.88-51.72Q155.90-55.26 164.17-55.26L164.17-55.26Q172.44-55.26 178.46-51.72Q184.48-48.19 187.75-41.85Q191.02-35.51 191.02-27.06L191.02-27.06Q191.02-18.68 187.75-12.34Q184.48-6.00 178.46-2.47Q172.44 1.07 164.17 1.07ZM164.24-10.65L164.24-10.65Q168.01-10.65 170.53-12.80Q173.05-14.95 174.34-18.68Q175.64-22.41 175.64-27.17L175.64-27.17Q175.64-31.92 174.34-35.65Q173.05-39.38 170.53-41.55Q168.01-43.71 164.24-43.71L164.24-43.71Q160.44-43.71 157.87-41.55Q155.29-39.38 154.00-35.65Q152.70-31.92 152.70-27.17L152.70-27.17Q152.70-22.41 154.00-18.68Q155.29-14.95 157.87-12.80Q160.44-10.65 164.24-10.65Z" fill="#1A1C20" transform="translate(129.73 105.73)"></path><circle cx="390.13" cy="69.36" r="54.55" fill="#00A94F"></circle><path d="M25.82-60.05L3.55-60.05L3.55-72.73L63.28-72.73L63.28-60.05L41.02-60.05L41.02 0L25.82 0L25.82-60.05Z" fill="#FFFFFF" transform="translate(356.71 105.73)"></path><path d="M21.16 0L6.04 0L6.04-54.55L20.70-54.55L20.70-45.03L21.27-45.03Q22.76-50.11 26.28-52.72Q29.79-55.33 34.38-55.33L34.38-55.33Q35.51-55.33 36.83-55.18Q38.14-55.04 39.13-54.79L39.13-54.79L39.13-41.37Q38.07-41.69 36.19-41.94Q34.30-42.19 32.74-42.19L32.74-42.19Q29.40-42.19 26.79-40.75Q24.18-39.31 22.67-36.75Q21.16-34.20 21.16-30.86L21.16-30.86L21.16 0Z M60.46 1.03L60.46 1.03Q55.24 1.03 51.16-0.80Q47.08-2.63 44.72-6.23Q42.35-9.84 42.35-15.23L42.35-15.23Q42.35-19.78 44.02-22.87Q45.69-25.96 48.57-27.84Q51.44-29.72 55.12-30.68Q58.80-31.64 62.84-32.03L62.84-32.03Q67.60-32.53 70.51-32.97Q73.43-33.42 74.74-34.30Q76.05-35.19 76.05-36.93L76.05-36.93L76.05-37.14Q76.05-40.52 73.94-42.37Q71.83-44.21 67.96-44.21L67.96-44.21Q63.87-44.21 61.46-42.42Q59.04-40.63 58.26-37.93L58.26-37.93L44.27-39.06Q45.34-44.03 48.46-47.67Q51.59-51.31 56.54-53.28Q61.49-55.26 68.03-55.26L68.03-55.26Q72.57-55.26 76.75-54.19Q80.92-53.13 84.17-50.89Q87.42-48.65 89.30-45.15Q91.18-41.65 91.18-36.79L91.18-36.79L91.18 0L76.84 0L76.84-7.56L76.41-7.56Q75.10-5.01 72.89-3.07Q70.69-1.14 67.60-0.05Q64.51 1.03 60.46 1.03ZM64.80-9.41L64.80-9.41Q68.13-9.41 70.69-10.74Q73.25-12.07 74.70-14.35Q76.16-16.62 76.16-19.50L76.16-19.50L76.16-25.28Q75.45-24.82 74.23-24.45Q73-24.08 71.47-23.77Q69.95-23.47 68.42-23.24Q66.89-23.01 65.65-22.83L65.65-22.83Q62.99-22.44 61.00-21.59Q59.01-20.74 57.91-19.30Q56.81-17.86 56.81-15.73L56.81-15.73Q56.81-12.64 59.06-11.03Q61.32-9.41 64.80-9.41Z M125.58 1.07L125.58 1.07Q117.20 1.07 111.18-2.50Q105.16-6.07 101.95-12.43Q98.73-18.79 98.73-27.06L98.73-27.06Q98.73-35.44 101.98-41.78Q105.23-48.12 111.23-51.69Q117.24-55.26 125.51-55.26L125.51-55.26Q132.65-55.26 138.01-52.66Q143.37-50.07 146.50-45.38Q149.62-40.70 149.94-34.38L149.94-34.38L135.67-34.38Q135.06-38.46 132.49-40.96Q129.91-43.47 125.76-43.47L125.76-43.47Q122.24-43.47 119.63-41.57Q117.02-39.67 115.57-36.04Q114.11-32.42 114.11-27.27L114.11-27.27Q114.11-22.05 115.55-18.39Q116.99-14.74 119.62-12.82Q122.24-10.90 125.76-10.90L125.76-10.90Q128.35-10.90 130.43-11.97Q132.51-13.03 133.87-15.07Q135.24-17.12 135.67-19.99L135.67-19.99L149.94-19.99Q149.59-13.74 146.55-9.00Q143.51-4.26 138.19-1.60Q132.86 1.07 125.58 1.07Z M172.80 0L157.67 0L157.67-72.73L172.80-72.73L172.80-33.84L173.62-33.84L191.09-54.55L208.45-54.55L188.21-30.93L209.48 0L191.76 0L176.88-21.98L172.80-17.33L172.80 0Z" fill="#1A1C20" transform="translate(447.67 105.73)"></path><rect x="677.47" y="33" width="2" height="72.73" fill="#1A1C20"></rect><path d="M15.55 0L11.01 0L1.07-36.36L5.54-36.36L13.14-6.75L13.49-6.75L21.24-36.36L26.21-36.36L33.95-6.75L34.30-6.75L41.90-36.36L46.38-36.36L36.43 0L31.89 0L23.86-28.98L23.58-28.98L15.55 0Z M62.00-10.30L58.34 0L53.72 0L67.07-36.36L71.62-36.36L84.97 0L80.36 0L76.70-10.30L62.00-10.30ZM63.38-14.20L75.31-14.20L69.49-30.61L69.20-30.61L63.38-14.20Z M119.80-27.27L115.54-27.27Q115.22-29.97 112.95-31.46Q110.67-32.95 107.37-32.95L107.37-32.95Q104.96-32.95 103.16-32.17Q101.35-31.39 100.35-30.02Q99.35-28.66 99.35-26.92L99.35-26.92Q99.35-25.46 100.05-24.42Q100.75-23.38 101.85-22.70Q102.95-22.02 104.16-21.58Q105.37-21.15 106.38-20.88L106.38-20.88L110.07-19.89Q111.49-19.51 113.24-18.86Q114.99-18.20 116.60-17.07Q118.20-15.94 119.25-14.19Q120.30-12.43 120.30-9.87L120.30-9.87Q120.30-6.92 118.76-4.55Q117.23-2.17 114.29-0.76Q111.35 0.64 107.16 0.64L107.16 0.64Q103.25 0.64 100.40-0.62Q97.55-1.88 95.93-4.14Q94.30-6.39 94.09-9.38L94.09-9.38L98.64-9.38Q98.81-7.32 100.03-5.97Q101.25-4.63 103.12-3.99Q104.99-3.34 107.16-3.34L107.16-3.34Q109.68-3.34 111.69-4.16Q113.69-4.99 114.87-6.47Q116.04-7.95 116.04-9.94L116.04-9.94Q116.04-11.75 115.02-12.89Q114.01-14.03 112.36-14.74Q110.71-15.45 108.79-15.98L108.79-15.98L104.32-17.26Q100.06-18.48 97.57-20.76Q95.09-23.03 95.09-26.70L95.09-26.70Q95.09-29.76 96.75-32.04Q98.41-34.32 101.22-35.59Q104.03-36.86 107.51-36.86L107.51-36.86Q111.03-36.86 113.76-35.61Q116.50-34.36 118.11-32.19Q119.71-30.02 119.80-27.27L119.80-27.27Z M136.95 0L132.54 0L132.54-36.36L136.95-36.36L136.95-20.17L156.34-20.17L156.34-36.36L160.74-36.36L160.74 0L156.34 0L156.34-16.26L136.95-16.26L136.95 0Z M174.55-36.36L178.95-36.36L178.95 0L174.55 0L174.55-36.36Z M217.26-36.36L221.59-36.36L221.59 0L217.33 0L197.51-28.55L197.16-28.55L197.16 0L192.76 0L192.76-36.36L197.02-36.36L216.90-7.74L217.26-7.74L217.26-36.36Z M264.80-25.00L260.26-25.00Q259.67-26.79 258.72-28.22Q257.77-29.65 256.46-30.66Q255.16-31.68 253.51-32.21Q251.86-32.74 249.89-32.74L249.89-32.74Q246.65-32.74 244.01-31.07Q241.36-29.40 239.80-26.15Q238.24-22.90 238.24-18.18Q238.24-13.46 239.82-10.21Q241.40-6.96 244.10-5.29Q246.80-3.62 250.17-3.62L250.17-3.62Q253.30-3.62 255.68-4.96Q258.07-6.30 259.42-8.77L259.42-8.77Q260.70-11.12 260.75-14.28L260.75-14.28L251.16-14.28L251.16-18.18L265.01-18.18L265.01-14.28Q265.01-9.78 263.11-6.46Q261.20-3.14 257.85-1.32Q254.50 0.50 250.17 0.50L250.17 0.50Q245.34 0.50 241.69-1.78Q238.04-4.05 236.01-8.24Q233.98-12.43 233.98-18.18L233.98-18.18Q233.98-22.50 235.14-25.95Q236.30-29.40 238.43-31.84Q240.56-34.27 243.48-35.56Q246.39-36.86 249.89-36.86L249.89-36.86Q252.76-36.86 255.26-36.00Q257.75-35.14 259.71-33.57Q261.68-32.00 262.99-29.82Q264.30-27.65 264.80-25.00L264.80-25.00Z M286.99-32.46L275.55-32.46L275.55-36.36L302.83-36.36L302.83-32.46L291.39-32.46L291.39 0L286.99 0L286.99-32.46Z M345.33-18.18L345.33-18.18Q345.33-12.43 343.25-8.24Q341.17-4.05 337.55-1.78Q333.93 0.50 329.28 0.50L329.28 0.50Q324.62 0.50 321.00-1.78Q317.38-4.05 315.30-8.24Q313.22-12.43 313.22-18.18L313.22-18.18Q313.22-23.93 315.30-28.13Q317.38-32.32 321.00-34.59Q324.62-36.86 329.28-36.86L329.28-36.86Q333.93-36.86 337.55-34.59Q341.17-32.32 343.25-28.13Q345.33-23.93 345.33-18.18ZM341.07-18.18L341.07-18.18Q341.07-22.90 339.49-26.15Q337.92-29.40 335.25-31.07Q332.58-32.74 329.28-32.74L329.28-32.74Q325.97-32.74 323.30-31.07Q320.63-29.40 319.06-26.15Q317.49-22.90 317.49-18.18L317.49-18.18Q317.49-13.46 319.06-10.21Q320.63-6.96 323.30-5.29Q325.97-3.62 329.28-3.62L329.28-3.62Q332.58-3.62 335.25-5.29Q337.92-6.96 339.49-10.21Q341.07-13.46 341.07-18.18Z M382.22-36.36L386.55-36.36L386.55 0L382.29 0L362.47-28.55L362.12-28.55L362.12 0L357.71 0L357.71-36.36L361.97-36.36L381.86-7.74L382.22-7.74L382.22-36.36Z" fill="#BF0D3E" transform="translate(699.47 87.55)"></path></svg>