<svg xmlns="http://www.w3.org/2000/svg" viewBox="0 0 293.46 146.73" width="293.46" height="146.73" role="img" aria-label="MetroTrack"><title>MetroTrack</title><rect x="73.36" y="65.68" width="149.55" height="15.38" fill="#1A1C20"></rect><circle cx="73.36" cy="73.36" r="57.36" fill="#1A1C20"></circle><path d="M6.32 0L6.32-72.73L25.28-72.73L45.31-23.86L46.16-23.86L66.19-72.73L85.16-72.73L85.16 0L70.24 0L70.24-47.34L69.64-47.34L50.82-0.36L40.66-0.36L21.84-47.51L21.24-47.51L21.24 0L6.32 0Z" fill="#FFFFFF" transform="translate(30.83 107.18) scale(0.93)"></path><circle cx="222.91" cy="73.36" r="54.55" fill="#1A1C20"></circle><path d="M25.82-60.05L3.55-60.05L3.55-72.73L63.28-72.73L63.28-60.05L41.02-60.05L41.02 0L25.82 0L25.82-60.05Z" fill="#FFFFFF" transform="translate(189.5 109.73)"></path></svg>