<svg xmlns="http://www.w3.org/2000/svg" viewBox="0 0 1102.03 138.73" width="1102.03" height="138.73" role="img" aria-label="MetroTrack Los Angeles"><title>MetroTrack Los Angeles</title><circle cx="69.36" cy="69.36" r="57.36" fill="#E51937"></circle><path d="M6.32 0L6.32-72.73L25.28-72.73L45.31-23.86L46.16-23.86L66.19-72.73L85.16-72.73L85.16 0L70.24 0L70.24-47.34L69.64-47.34L50.82-0.36L40.66-0.36L21.84-47.51L21.24-47.51L21.24 0L6.32 0Z" fill="#FFFFFF" transform="translate(26.83 103.18) scale(0.93)"></path><path d="M30.89 1.07L30.89 1.07Q22.48 1.07 16.42-2.36Q10.37-5.79 7.10-12.09Q3.84-18.39 3.84-27.02L3.84-27.02Q3.84-35.44 7.10-41.80Q10.37-48.15 16.32-51.70Q22.27-55.26 30.29-55.26L30.29-55.26Q35.69-55.26 40.36-53.53Q45.03-51.81 48.53-48.37Q52.02-44.92 53.98-39.72Q55.93-34.52 55.93-27.56L55.93-27.56L55.93-23.40L18.79-23.40L18.79-23.37Q18.79-19.32 20.29-16.37Q21.80-13.42 24.57-11.83Q27.34-10.23 31.14-10.23L31.14-10.23Q33.66-10.23 35.76-10.94Q37.86-11.65 39.35-13.07Q40.84-14.49 41.62-16.55L41.62-16.55L55.61-15.63Q54.55-10.58 51.26-6.84Q47.98-3.09 42.81-1.01Q37.64 1.07 30.89 1.07ZM18.79-32.78L18.79-32.78L41.69-32.78Q41.69-36.04 40.27-38.57Q38.85-41.09 36.35-42.52Q33.84-43.96 30.54-43.96L30.54-43.96Q27.10-43.96 24.45-42.38Q21.80-40.80 20.31-38.17L20.31-38.17Q18.93-35.72 18.79-32.78Z M82.55-54.55L92.82-54.55L92.82-43.18L82.55-43.18L82.55-16.76Q82.55-14.67 83.19-13.51Q83.83-12.36 84.99-11.90Q86.14-11.43 87.67-11.43L87.67-11.43Q88.73-11.43 89.80-11.63Q90.86-11.83 91.43-11.93L91.43-11.93L93.81-0.67Q92.67-0.32 90.61 0.16Q88.55 0.64 85.61 0.75L85.61 0.75Q80.14 0.96 76.04-0.71Q71.93-2.38 69.66-5.89Q67.39-9.41 67.42-14.77L67.42-14.77L67.42-43.18L59.97-43.18L59.97-54.55L67.42-54.55L67.42-67.61L82.55-67.61L82.55-54.55Z M115.78 0L100.65 0L100.65-54.55L115.32-54.55L115.32-45.03L115.89-45.03Q117.38-50.11 120.89-52.72Q124.41-55.33 128.99-55.33L128.99-55.33Q130.13-55.33 131.44-55.18Q132.75-55.04 133.75-54.79L133.75-54.79L133.75-41.37Q132.68-41.69 130.80-41.94Q128.92-42.19 127.36-42.19L127.36-42.19Q124.02-42.19 121.41-40.75Q118.80-39.31 117.29-36.75Q115.78-34.20 115.78-30.86L115.78-30.86L115.78 0Z M164.17 1.07L164.17 1.07Q155.90 1.07 149.88-2.47Q143.86-6.00 140.59-12.34Q137.32-18.68 137.32-27.06L137.32-27.06Q137.32-35.51 140.59-41.85Q143.86-48.19 149.88-51.72Q155.90-55.26 164.17-55.26L164.17-55.26Q172.44-55.26 178.46-51.72Q184.48-48.19 187.75-41.85Q191.02-35.51 191.02-27.06L191.02-27.06Q191.02-18.68 187.75-12.34Q184.48-6.00 178.46-2.47Q172.44 1.07 164.17 1.07ZM164.24-10.65L164.24-10.65Q168.01-10.65 170.53-12.80Q173.05-14.95 174.34-18.68Q175.64-22.41 175.64-27.17L175.64-27.17Q175.64-31.92 174.34-35.65Q173.05-39.38 170.53-41.55Q168.01-43.71 164.24-43.71L164.24-43.71Q160.44-43.71 157.87-41.55Q155.29-39.38 154.00-35.65Q152.70-31.92 152.70-27.17L152.70-27.17Q152.70-22.41 154.00-18.68Q155.29-14.95 157.87-12.80Q160.44-10.65 164.24-10.65Z" fill="#1A1C20" transform="translate(129.73 105.73)"></path><circle cx="390.13" cy="69.36" r="54.55" fill="#0072BC"></circle><path d="M25.82-60.05L3.55-60.05L3.55-72.73L63.28-72.73L63.28-60.05L41.02-60.05L41.02 0L25.82 0L25.82-60.05Z" fill="#FFFFFF" transform="translate(356.71 105.73)"></path><path d="M21.16 0L6.04 0L6.04-54.55L20.70-54.55L20.70-45.03L21.27-45.03Q22.76-50.11 26.28-52.72Q29.79-55.33 34.38-55.33L34.38-55.33Q35.51-55.33 36.83-55.18Q38.14-55.04 39.13-54.79L39.13-54.79L39.13-41.37Q38.07-41.69 36.19-41.94Q34.30-42.19 32.74-42.19L32.74-42.19Q29.40-42.19 26.79-40.75Q24.18-39.31 22.67-36.75Q21.16-34.20 21.16-30.86L21.16-30.86L21.16 0Z M60.46 1.03L60.46 1.03Q55.24 1.03 51.16-0.80Q47.08-2.63 44.72-6.23Q42.35-9.84 42.35-15.23L42.35-15.23Q42.35-19.78 44.02-22.87Q45.69-25.96 48.57-27.84Q51.44-29.72 55.12-30.68Q58.80-31.64 62.84-32.03L62.84-32.03Q67.60-32.53 70.51-32.97Q73.43-33.42 74.74-34.30Q76.05-35.19 76.05-36.93L76.05-36.93L76.05-37.14Q76.05-40.52 73.94-42.37Q71.83-44.21 67.96-44.21L67.96-44.21Q63.87-44.21 61.46-42.42Q59.04-40.63 58.26-37.93L58.26-37.93L44.27-39.06Q45.34-44.03 48.46-47.67Q51.59-51.31 56.54-53.28Q61.49-55.26 68.03-55.26L68.03-55.26Q72.57-55.26 76.75-54.19Q80.92-53.13 84.17-50.89Q87.42-48.65 89.30-45.15Q91.18-41.65 91.18-36.79L91.18-36.79L91.18 0L76.84 0L76.84-7.56L76.41-7.56Q75.10-5.01 72.89-3.07Q70.69-1.14 67.60-0.05Q64.51 1.03 60.46 1.03ZM64.80-9.41L64.80-9.41Q68.13-9.41 70.69-10.74Q73.25-12.07 74.70-14.35Q76.16-16.62 76.16-19.50L76.16-19.50L76.16-25.28Q75.45-24.82 74.23-24.45Q73-24.08 71.47-23.77Q69.95-23.47 68.42-23.24Q66.89-23.01 65.65-22.83L65.65-22.83Q62.99-22.44 61.00-21.59Q59.01-20.74 57.91-19.30Q56.81-17.86 56.81-15.73L56.81-15.73Q56.81-12.64 59.06-11.03Q61.32-9.41 64.80-9.41Z M125.58 1.07L125.58 1.07Q117.20 1.07 111.18-2.50Q105.16-6.07 101.95-12.43Q98.73-18.79 98.73-27.06L98.73-27.06Q98.73-35.44 101.98-41.78Q105.23-48.12 111.23-51.69Q117.24-55.26 125.51-55.26L125.51-55.26Q132.65-55.26 138.01-52.66Q143.37-50.07 146.50-45.38Q149.62-40.70 149.94-34.38L149.94-34.38L135.67-34.38Q135.06-38.46 132.49-40.96Q129.91-43.47 125.76-43.47L125.76-43.47Q122.24-43.47 119.63-41.57Q117.02-39.67 115.57-36.04Q114.11-32.42 114.11-27.27L114.11-27.27Q114.11-22.05 115.55-18.39Q116.99-14.74 119.62-12.82Q122.24-10.90 125.76-10.90L125.76-10.90Q128.35-10.90 130.43-11.97Q132.51-13.03 133.87-15.07Q135.24-17.12 135.67-19.99L135.67-19.99L149.94-19.99Q149.59-13.74 146.55-9.00Q143.51-4.26 138.19-1.60Q132.86 1.07 125.58 1.07Z M172.80 0L157.67 0L157.67-72.73L172.80-72.73L172.80-33.84L173.62-33.84L191.09-54.55L208.45-54.55L188.21-30.93L209.48 0L191.76 0L176.88-21.98L172.80-17.33L172.80 0Z" fill="#1A1C20" transform="translate(447.67 105.73)"></path><rect x="677.47" y="33" width="2" height="72.73" fill="#1A1C20"></rect><path d="M25.71 0L4.40 0L4.40-36.36L8.81-36.36L8.81-3.91L25.71-3.91L25.71 0Z M68.21-18.18L68.21-18.18Q68.21-12.43 66.13-8.24Q64.06-4.05 60.43-1.78Q56.81 0.50 52.16 0.50L52.16 0.50Q47.51 0.50 43.88-1.78Q40.26-4.05 38.19-8.24Q36.11-12.43 36.11-18.18L36.11-18.18Q36.11-23.93 38.19-28.13Q40.26-32.32 43.88-34.59Q47.51-36.86 52.16-36.86L52.16-36.86Q56.81-36.86 60.43-34.59Q64.06-32.32 66.13-28.13Q68.21-23.93 68.21-18.18ZM63.95-18.18L63.95-18.18Q63.95-22.90 62.38-26.15Q60.81-29.40 58.13-31.07Q55.46-32.74 52.16-32.74L52.16-32.74Q48.86-32.74 46.18-31.07Q43.51-29.40 41.94-26.15Q40.37-22.90 40.37-18.18L40.37-18.18Q40.37-13.46 41.94-10.21Q43.51-6.96 46.18-5.29Q48.86-3.62 52.16-3.62L52.16-3.62Q55.46-3.62 58.13-5.29Q60.81-6.96 62.38-10.21Q63.95-13.46 63.95-18.18Z M104.74-27.27L100.48-27.27Q100.16-29.97 97.89-31.46Q95.62-32.95 92.32-32.95L92.32-32.95Q89.90-32.95 88.10-32.17Q86.30-31.39 85.29-30.02Q84.29-28.66 84.29-26.92L84.29-26.92Q84.29-25.46 84.99-24.42Q85.69-23.38 86.79-22.70Q87.89-22.02 89.10-21.58Q90.31-21.15 91.32-20.88L91.32-20.88L95.01-19.89Q96.43-19.51 98.18-18.86Q99.93-18.20 101.54-17.07Q103.15-15.94 104.19-14.19Q105.24-12.43 105.24-9.87L105.24-9.87Q105.24-6.92 103.71-4.55Q102.17-2.17 99.23-0.76Q96.29 0.64 92.10 0.64L92.10 0.64Q88.20 0.64 85.35-0.62Q82.50-1.88 80.87-4.14Q79.25-6.39 79.03-9.38L79.03-9.38L83.58-9.38Q83.76-7.32 84.97-5.97Q86.19-4.63 88.06-3.99Q89.94-3.34 92.10-3.34L92.10-3.34Q94.62-3.34 96.63-4.16Q98.64-4.99 99.81-6.47Q100.98-7.95 100.98-9.94L100.98-9.94Q100.98-11.75 99.97-12.89Q98.96-14.03 97.30-14.74Q95.65-15.45 93.74-15.98L93.74-15.98L89.26-17.26Q85-18.48 82.51-20.76Q80.03-23.03 80.03-26.70L80.03-26.70Q80.03-29.76 81.69-32.04Q83.35-34.32 86.16-35.59Q88.98-36.86 92.46-36.86L92.46-36.86Q95.97-36.86 98.71-35.61Q101.44-34.36 103.05-32.19Q104.66-30.02 104.74-27.27L104.74-27.27Z M141.70-10.30L138.04 0L133.42 0L146.78-36.36L151.32-36.36L164.67 0L160.06 0L156.40-10.30L141.70-10.30ZM143.08-14.20L155.01-14.20L149.19-30.61L148.91-30.61L143.08-14.20Z M199.86-36.36L204.19-36.36L204.19 0L199.93 0L180.11-28.55L179.76-28.55L179.76 0L175.36 0L175.36-36.36L179.62-36.36L199.50-7.74L199.86-7.74L199.86-36.36Z M247.40-25.00L242.86-25.00Q242.27-26.79 241.32-28.22Q240.37-29.65 239.06-30.66Q237.76-31.68 236.11-32.21Q234.46-32.74 232.49-32.74L232.49-32.74Q229.25-32.74 226.61-31.07Q223.96-29.40 222.40-26.15Q220.84-22.90 220.84-18.18Q220.84-13.46 222.42-10.21Q224.00-6.96 226.70-5.29Q229.40-3.62 232.77-3.62L232.77-3.62Q235.89-3.62 238.28-4.96Q240.67-6.30 242.02-8.77L242.02-8.77Q243.30-11.12 243.35-14.28L243.35-14.28L233.76-14.28L233.76-18.18L247.61-18.18L247.61-14.28Q247.61-9.78 245.70-6.46Q243.80-3.14 240.45-1.32Q237.10 0.50 232.77 0.50L232.77 0.50Q227.94 0.50 224.29-1.78Q220.64-4.05 218.61-8.24Q216.58-12.43 216.58-18.18L216.58-18.18Q216.58-22.50 217.74-25.95Q218.90-29.40 221.03-31.84Q223.16-34.27 226.08-35.56Q228.99-36.86 232.49-36.86L232.49-36.86Q235.36-36.86 237.86-36.00Q240.35-35.14 242.31-33.57Q244.28-32.00 245.59-29.82Q246.90-27.65 247.40-25.00L247.40-25.00Z M282.37 0L260.14 0L260.14-36.36L282.09-36.36L282.09-32.46L264.55-32.46L264.55-20.17L280.95-20.17L280.95-16.26L264.55-16.26L264.55-3.91L282.37-3.91L282.37 0Z M316.35 0L295.04 0L295.04-36.36L299.45-36.36L299.45-3.91L316.35-3.91L316.35 0Z M350.40 0L328.17 0L328.17-36.36L350.11-36.36L350.11-32.46L332.57-32.46L332.57-20.17L348.98-20.17L348.98-16.26L332.57-16.26L332.57-3.91L350.40-3.91L350.40 0Z M387.22-27.27L382.95-27.27Q382.63-29.97 380.36-31.46Q378.09-32.95 374.79-32.95L374.79-32.95Q372.37-32.95 370.57-32.17Q368.77-31.39 367.76-30.02Q366.76-28.66 366.76-26.92L366.76-26.92Q366.76-25.46 367.46-24.42Q368.16-23.38 369.26-22.70Q370.37-22.02 371.57-21.58Q372.78-21.15 373.79-20.88L373.79-20.88L377.49-19.89Q378.91-19.51 380.66-18.86Q382.40-18.20 384.01-17.07Q385.62-15.94 386.67-14.19Q387.71-12.43 387.71-9.87L387.71-9.87Q387.71-6.92 386.18-4.55Q384.64-2.17 381.70-0.76Q378.76 0.64 374.57 0.64L374.57 0.64Q370.67 0.64 367.82-0.62Q364.97-1.88 363.34-4.14Q361.72-6.39 361.51-9.38L361.51-9.38L366.05-9.38Q366.23-7.32 367.44-5.97Q368.66-4.63 370.53-3.99Q372.41-3.34 374.57-3.34L374.57-3.34Q377.10-3.34 379.10-4.16Q381.11-4.99 382.28-6.47Q383.45-7.95 383.45-9.94L383.45-9.94Q383.45-11.75 382.44-12.89Q381.43-14.03 379.78-14.74Q378.13-15.45 376.21-15.98L376.21-15.98L371.73-17.26Q367.47-18.48 364.99-20.76Q362.50-23.03 362.50-26.70L362.50-26.70Q362.50-29.76 364.16-32.04Q365.82-34.32 368.63-35.59Q371.45-36.86 374.93-36.86L374.93-36.86Q378.44-36.86 381.18-35.61Q383.91-34.36 385.52-32.19Q387.13-30.02 387.22-27.27L387.22-27.27Z" fill="#E51937" transform="translate(699.47 87.55)"></path></svg>